<svg height="600" width="600">
  <path d="M597.533 250.365 C 598.435 267.476, 603.039 304.405, 598.929 324.361" fill="none" style="stroke:rgb(0,0,0);stroke-width:4" />
  <path d="M598.929 324.361 C 594.82 344.318, 569.962 384.384, 557.023 404.354" fill="none" style="stroke:rgb(0,0,0);stroke-width:4" />
  <path d="M557.023 404.354 C 551.793 427.314, 540.316 469.98, 530.353 486.301" fill="none" style="stroke:rgb(0,0,0);stroke-width:4" />
  <path d="M530.353 486.301 C 520.39 502.623, 495.617 528.291, 484.523 541.021" fill="none" style="stroke:rgb(0,0,0);stroke-width:4" />
  <path d="M484.523 541.021 C 460.808 537.908, 416.781 532.257, 400.302 539.064" fill="none" style="stroke:rgb(0,0,0);stroke-width:4" />
  <path d="M400.302 539.064 C 383.822 545.872, 356.568 581.012, 341.961 600" fill="none" style="stroke:rgb(0,0,0);stroke-width:4" />
  <path d="M341.961 600 C 325.118 598.9, 289.41 598.511, 270.892 594.073" fill="none" style="stroke:rgb(0,0,0);stroke-width:4" />
  <path d="M270.892 594.073 C 252.374 589.634, 214.632 567.579, 195.06 555.112" fill="none" style="stroke:rgb(0,0,0);stroke-width:4" />
  <path d="M195.06 555.112 C 172.724 550.105, 130.386 538.897, 114.143 529.018" fill="none" style="stroke:rgb(0,0,0);stroke-width:4" />
  <path d="M114.143 529.018 C 97.9004 519.14, 72.4946 494.374, 59.5717 483.164" fill="none" style="stroke:rgb(0,0,0);stroke-width:4" />
  <path d="M59.5717 483.164 C 42.2358 470.563, 10.5579 442.145, 2.88871 423.579" fill="none" style="stroke:rgb(0,0,0);stroke-width:4" />
  <path d="M2.88871 423.579 C -4.78043 405.013, -2.39579 362.537, 0.985092 341.378" fill="none" style="stroke:rgb(0,0,0);stroke-width:4" />
  <path d="M0.985092 341.378 C 2.15824 324.256, 2.5746 288.718, 7.06503 270.236" fill="none" style="stroke:rgb(0,0,0);stroke-width:4" />
  <path d="M7.06503 270.236 C 11.5555 251.753, 33.6953 213.728, 46.0976 194.254" fill="none" style="stroke:rgb(0,0,0);stroke-width:4" />
  <path d="M46.0976 194.254 C 51.1745 171.688, 62.2052 129.647, 72.1072 113.48" fill="none" style="stroke:rgb(0,0,0);stroke-width:4" />
  <path d="M72.1072 113.48 C 82.0093 97.3125, 107.009 71.7488, 118.159 59.0455" fill="none" style="stroke:rgb(0,0,0);stroke-width:4" />
  <path d="M118.159 59.0455 C 130.777 41.5331, 158.993 9.79732, 177.561 2.11956" fill="none" style="stroke:rgb(0,0,0);stroke-width:4" />
  <path d="M177.561 2.11956 C 196.128 -5.5582, 238.867 -3.34518, 260.069 0" fill="none" style="stroke:rgb(0,0,0);stroke-width:4" />
  <path d="M260.069 0 C 277.158 1.18988, 312.596 1.58644, 331.113 6.12704" fill="none" style="stroke:rgb(0,0,0);stroke-width:4" />
  <path d="M331.113 6.12704 C 349.63 10.6676, 387.78 32.919, 407.245 45.2959" fill="none" style="stroke:rgb(0,0,0);stroke-width:4" />
  <path d="M407.245 45.2959 C 429.809 50.3461, 471.836 61.272, 488.015 71.0931" fill="none" style="stroke:rgb(0,0,0);stroke-width:4" />
  <path d="M488.015 71.0931 C 504.195 80.9141, 529.82 105.526, 542.549 116.372" fill="none" style="stroke:rgb(0,0,0);stroke-width:4" />
  <path d="M542.549 116.372 C 539.442 139.762, 533.724 182.949, 540.065 198.483" fill="none" style="stroke:rgb(0,0,0);stroke-width:4" />
  <path d="M540.065 198.483 C 546.405 214.017, 579.614 237.827, 597.533 250.365" fill="none" style="stroke:rgb(0,0,0);stroke-width:4" />
  <path d="M597.533 250.365 C 602.156 231.754, 606.327 193.163, 599.015 175.339" fill="none" style="stroke:rgb(0,0,0);stroke-width:1" />
  <path d="M599.015 175.339 C 591.702 157.515, 560.039 129.11, 542.549 116.372" fill="none" style="stroke:rgb(0,0,0);stroke-width:1" />
  <path d="M484.523 541.021 C 471.75 558.583, 443.015 590.165, 424.504 597.845" fill="none" style="stroke:rgb(0,0,0);stroke-width:1" />
  <path d="M424.504 597.845 C 405.994 605.525, 363.447 603.433, 341.961 600" fill="none" style="stroke:rgb(0,0,0);stroke-width:1" />
  <path d="M367.569 143.022 C 369.821 137.321, 374.373 125.884, 378.98 114.55" fill="none" style="stroke:rgb(0,0,0);stroke-width:4" />
  <path d="M378.98 114.55 C 383.588 103.217, 398.875 65.7909, 407.245 45.2959" fill="none" style="stroke:rgb(0,0,0);stroke-width:4" />
  <path d="M46.0976 194.254 C 66.4857 202.61, 104.13 218.38, 115.437 223.106" fill="none" style="stroke:rgb(0,0,0);stroke-width:4" />
  <path d="M115.437 223.106 C 126.744 227.833, 137.947 232.303, 143.792 234.734" fill="none" style="stroke:rgb(0,0,0);stroke-width:4" />
  <path d="M143.792 234.734 C 155.825 219.508, 178.776 190.816, 182.379 191.754" fill="none" style="stroke:rgb(0,0,0);stroke-width:4" />
  <path d="M182.379 191.754 C 185.983 192.692, 177.343 227.424, 172.415 246.813" fill="none" style="stroke:rgb(0,0,0);stroke-width:4" />
  <path d="M172.415 246.813 C 175.461 247.809, 181.497 249.929, 186.11 251.91" fill="none" style="stroke:rgb(0,0,0);stroke-width:4" />
  <path d="M186.11 251.91 C 190.723 253.89, 204.796 259.958, 212.634 263.187" fill="none" style="stroke:rgb(0,0,0);stroke-width:4" />
  <path d="M212.634 263.187 C 221.149 253.558, 236.99 235.717, 241.849 230.325" fill="none" style="stroke:rgb(0,0,0);stroke-width:4" />
  <path d="M241.849 230.325 C 246.709 224.933, 251.848 219.248, 254.596 216.137" fill="none" style="stroke:rgb(0,0,0);stroke-width:4" />
  <path d="M254.596 216.137 C 251.921 201.702, 247.177 174.805, 249.748 173.698" fill="none" style="stroke:rgb(0,0,0);stroke-width:4" />
  <path d="M249.748 173.698 C 252.32 172.591, 268.103 195.105, 276.674 207.372" fill="none" style="stroke:rgb(0,0,0);stroke-width:4" />
  <path d="M276.674 207.372 C 280.633 207.538, 288.579 208.063, 295.909 208.55" fill="none" style="stroke:rgb(0,0,0);stroke-width:4" />
  <path d="M295.909 208.55 C 303.239 209.037, 326.844 210.355, 339.777 211.058" fill="none" style="stroke:rgb(0,0,0);stroke-width:4" />
  <path d="M339.777 211.058 C 342.958 203.454, 348.763 189.277, 350.608 184.665" fill="none" style="stroke:rgb(0,0,0);stroke-width:4" />
  <path d="M350.608 184.665 C 352.454 180.053, 354.579 174.21, 355.636 171.016" fill="none" style="stroke:rgb(0,0,0);stroke-width:4" />
  <path d="M355.636 171.016 C 374.824 176.082, 409.714 184.792, 410.717 181.293" fill="none" style="stroke:rgb(0,0,0);stroke-width:4" />
  <path d="M410.717 181.293 C 411.72 177.795, 382.796 155.088, 367.569 143.022" fill="none" style="stroke:rgb(0,0,0);stroke-width:4" />
  <path d="M367.569 143.022 C 348.322 140.694, 311.73 136.159, 309.918 139.334" fill="none" style="stroke:rgb(0,0,0);stroke-width:1" />
  <path d="M309.918 139.334 C 308.106 142.509, 338.732 161.041, 355.636 171.016" fill="none" style="stroke:rgb(0,0,0);stroke-width:1" />
  <path d="M260.069 0 C 245.795 18.7815, 218.872 53.6321, 202.485 60.4694" fill="none" style="stroke:rgb(0,0,0);stroke-width:1" />
  <path d="M202.485 60.4694 C 186.098 67.3068, 142.066 61.9789, 118.159 59.0455" fill="none" style="stroke:rgb(0,0,0);stroke-width:1" />
  <path d="M212.634 263.187 C 211.902 275.949, 210.351 299.833, 209.821 307.139" fill="none" style="stroke:rgb(0,0,0);stroke-width:4" />
  <path d="M209.821 307.139 C 209.29 314.446, 208.773 322.082, 208.498 326.225" fill="none" style="stroke:rgb(0,0,0);stroke-width:4" />
  <path d="M208.498 326.225 C 196.306 334.478, 173.772 349.974, 174.821 352.529" fill="none" style="stroke:rgb(0,0,0);stroke-width:4" />
  <path d="M174.821 352.529 C 175.871 355.084, 202.923 350.391, 217.533 347.832" fill="none" style="stroke:rgb(0,0,0);stroke-width:4" />
  <path d="M217.533 347.832 C 220.532 350.452, 226.523 355.616, 231.91 360.474" fill="none" style="stroke:rgb(0,0,0);stroke-width:4" />
  <path d="M231.91 360.474 C 237.296 365.332, 254.741 381.045, 264.404 389.585" fill="none" style="stroke:rgb(0,0,0);stroke-width:4" />
  <path d="M264.404 389.585 C 277.236 390.336, 301.253 391.882, 308.556 392.34" fill="none" style="stroke:rgb(0,0,0);stroke-width:4" />
  <path d="M308.556 392.34 C 315.86 392.797, 323.392 393.136, 327.502 393.356" fill="none" style="stroke:rgb(0,0,0);stroke-width:4" />
  <path d="M327.502 393.356 C 325.547 380.675, 322.107 356.871, 324.673 355.791" fill="none" style="stroke:rgb(0,0,0);stroke-width:4" />
  <path d="M324.673 355.791 C 327.239 354.711, 341.583 374.279, 349.312 384.886" fill="none" style="stroke:rgb(0,0,0);stroke-width:4" />
  <path d="M349.312 384.886 C 351.84 381.907, 356.881 375.937, 361.715 370.469" fill="none" style="stroke:rgb(0,0,0);stroke-width:4" />
  <path d="M361.715 370.469 C 366.548 365.002, 382.518 347.605, 391.333 338.152" fill="none" style="stroke:rgb(0,0,0);stroke-width:4" />
  <path d="M391.333 338.152 C 392.163 325.289, 393.684 301.814, 394.112 294.552" fill="none" style="stroke:rgb(0,0,0);stroke-width:4" />
  <path d="M394.112 294.552 C 394.541 287.29, 395.094 279.381, 395.478 275.384" fill="none" style="stroke:rgb(0,0,0);stroke-width:4" />
  <path d="M395.478 275.384 C 382.419 277.202, 358.696 280.484, 357.848 277.831" fill="none" style="stroke:rgb(0,0,0);stroke-width:4" />
  <path d="M357.848 277.831 C 357.001 275.177, 376.463 260.86, 386.956 253.313" fill="none" style="stroke:rgb(0,0,0);stroke-width:4" />
  <path d="M386.956 253.313 C 383.748 250.614, 378.002 245.598, 372.58 240.701" fill="none" style="stroke:rgb(0,0,0);stroke-width:4" />
  <path d="M372.58 240.701 C 367.159 235.804, 349.317 219.692, 339.777 211.058" fill="none" style="stroke:rgb(0,0,0);stroke-width:4" />
  <path d="M254.596 216.137 C 262.219 226.569, 276.59 245.94, 279.208 244.98" fill="none" style="stroke:rgb(0,0,0);stroke-width:1" />
  <path d="M279.208 244.98 C 281.826 244.02, 278.493 220.266, 276.674 207.372" fill="none" style="stroke:rgb(0,0,0);stroke-width:1" />
  <path d="M208.498 326.225 C 221.231 324.228, 245.242 320.785, 246.392 323.323" fill="none" style="stroke:rgb(0,0,0);stroke-width:1" />
  <path d="M246.392 323.323 C 247.542 325.862, 228.048 340.109, 217.533 347.832" fill="none" style="stroke:rgb(0,0,0);stroke-width:1" />
  <path d="M195.06 555.112 C 203.618 534.635, 219.308 497.242, 224.072 485.901" fill="none" style="stroke:rgb(0,0,0);stroke-width:4" />
  <path d="M224.072 485.901 C 228.836 474.559, 233.541 463.13, 235.849 457.468" fill="none" style="stroke:rgb(0,0,0);stroke-width:4" />
  <path d="M235.849 457.468 C 220.789 445.508, 191.881 422.775, 192.846 419.221" fill="none" style="stroke:rgb(0,0,0);stroke-width:4" />
  <path d="M192.846 419.221 C 193.811 415.666, 228.76 424.314, 247.932 429.296" fill="none" style="stroke:rgb(0,0,0);stroke-width:4" />
  <path d="M247.932 429.296 C 249.265 426.238, 251.742 420.58, 253.594 416.022" fill="none" style="stroke:rgb(0,0,0);stroke-width:4" />
  <path d="M253.594 416.022 C 255.446 411.465, 261.205 397.266, 264.404 389.585" fill="none" style="stroke:rgb(0,0,0);stroke-width:4" />
  <path d="M143.792 234.734 C 141.529 253.815, 137.353 290.125, 140.576 291.99" fill="none" style="stroke:rgb(0,0,0);stroke-width:1" />
  <path d="M140.576 291.99 C 143.799 293.855, 162.287 263.585, 172.415 246.813" fill="none" style="stroke:rgb(0,0,0);stroke-width:1" />
  <path d="M0.985092 341.378 C 19.8063 355.804, 54.6096 382.848, 61.4185 399.285" fill="none" style="stroke:rgb(0,0,0);stroke-width:1" />
  <path d="M61.4185 399.285 C 68.2274 415.722, 62.7175 459.571, 59.5717 483.164" fill="none" style="stroke:rgb(0,0,0);stroke-width:1" />
  <path d="M391.333 338.152 C 398.896 341.33, 413.155 347.233, 417.75 349.06" fill="none" style="stroke:rgb(0,0,0);stroke-width:4" />
  <path d="M417.75 349.06 C 422.346 350.888, 427.979 353.019, 431.116 354.222" fill="none" style="stroke:rgb(0,0,0);stroke-width:4" />
  <path d="M431.116 354.222 C 426.117 373.15, 417.377 407.876, 420.879 408.869" fill="none" style="stroke:rgb(0,0,0);stroke-width:4" />
  <path d="M420.879 408.869 C 424.381 409.861, 447.284 380.663, 459.44 365.279" fill="none" style="stroke:rgb(0,0,0);stroke-width:4" />
  <path d="M459.44 365.279 C 465.084 367.599, 476.486 372.104, 487.801 376.664" fill="none" style="stroke:rgb(0,0,0);stroke-width:4" />
  <path d="M487.801 376.664 C 499.116 381.224, 536.505 396.257, 557.023 404.354" fill="none" style="stroke:rgb(0,0,0);stroke-width:4" />
  <path d="M395.478 275.384 C 407.69 266.872, 430.231 251.131, 429.114 248.568" fill="none" style="stroke:rgb(0,0,0);stroke-width:1" />
  <path d="M429.114 248.568 C 427.996 246.006, 401.194 250.712, 386.956 253.313" fill="none" style="stroke:rgb(0,0,0);stroke-width:1" />
  <path d="M431.116 354.222 C 441.215 337.215, 459.896 306.607, 463.113 308.271" fill="none" style="stroke:rgb(0,0,0);stroke-width:1" />
  <path d="M463.113 308.271 C 466.331 309.935, 461.813 346.071, 459.44 365.279" fill="none" style="stroke:rgb(0,0,0);stroke-width:1" />
  <path d="M327.502 393.356 C 335.741 405.39, 351.288 427.671, 353.9 426.799" fill="none" style="stroke:rgb(0,0,0);stroke-width:1" />
  <path d="M353.9 426.799 C 356.512 425.927, 351.871 399.411, 349.312 384.886" fill="none" style="stroke:rgb(0,0,0);stroke-width:1" />
  <path d="M247.932 429.296 C 264.854 439.299, 295.426 457.877, 293.632 461.046" fill="none" style="stroke:rgb(0,0,0);stroke-width:1" />
  <path d="M293.632 461.046 C 291.838 464.214, 255.224 459.721, 235.849 457.468" fill="none" style="stroke:rgb(0,0,0);stroke-width:1" />
  <ellipse cx="597.533" cy="250.365" rx="1.68765" ry="1.68765"  style="fill:rgb(0,0,0)" />
  <ellipse cx="557.023" cy="404.354" rx="1.68765" ry="1.68765"  style="fill:rgb(0,0,0)" />
  <ellipse cx="484.523" cy="541.021" rx="1.68765" ry="1.68765"  style="fill:rgb(0,0,0)" />
  <ellipse cx="341.961" cy="600" rx="1.68765" ry="1.68765"  style="fill:rgb(0,0,0)" />
  <ellipse cx="195.06" cy="555.112" rx="1.68765" ry="1.68765"  style="fill:rgb(0,0,0)" />
  <ellipse cx="59.5717" cy="483.164" rx="1.68765" ry="1.68765"  style="fill:rgb(0,0,0)" />
  <ellipse cx="0.985092" cy="341.378" rx="1.68765" ry="1.68765"  style="fill:rgb(0,0,0)" />
  <ellipse cx="46.0976" cy="194.254" rx="1.68765" ry="1.68765"  style="fill:rgb(0,0,0)" />
  <ellipse cx="118.159" cy="59.0455" rx="1.68765" ry="1.68765"  style="fill:rgb(0,0,0)" />
  <ellipse cx="260.069" cy="0" rx="1.68765" ry="1.68765"  style="fill:rgb(0,0,0)" />
  <ellipse cx="407.245" cy="45.2959" rx="1.68765" ry="1.68765"  style="fill:rgb(0,0,0)" />
  <ellipse cx="542.549" cy="116.372" rx="1.68765" ry="1.68765"  style="fill:rgb(0,0,0)" />
  <ellipse cx="367.569" cy="143.022" rx="1.68765" ry="1.68765"  style="fill:rgb(0,0,0)" />
  <ellipse cx="143.792" cy="234.734" rx="1.68765" ry="1.68765"  style="fill:rgb(0,0,0)" />
  <ellipse cx="172.415" cy="246.813" rx="1.68765" ry="1.68765"  style="fill:rgb(0,0,0)" />
  <ellipse cx="212.634" cy="263.187" rx="1.68765" ry="1.68765"  style="fill:rgb(0,0,0)" />
  <ellipse cx="254.596" cy="216.137" rx="1.68765" ry="1.68765"  style="fill:rgb(0,0,0)" />
  <ellipse cx="276.674" cy="207.372" rx="1.68765" ry="1.68765"  style="fill:rgb(0,0,0)" />
  <ellipse cx="339.777" cy="211.058" rx="1.68765" ry="1.68765"  style="fill:rgb(0,0,0)" />
  <ellipse cx="355.636" cy="171.016" rx="1.68765" ry="1.68765"  style="fill:rgb(0,0,0)" />
  <ellipse cx="208.498" cy="326.225" rx="1.68765" ry="1.68765"  style="fill:rgb(0,0,0)" />
  <ellipse cx="217.533" cy="347.832" rx="1.68765" ry="1.68765"  style="fill:rgb(0,0,0)" />
  <ellipse cx="264.404" cy="389.585" rx="1.68765" ry="1.68765"  style="fill:rgb(0,0,0)" />
  <ellipse cx="327.502" cy="393.356" rx="1.68765" ry="1.68765"  style="fill:rgb(0,0,0)" />
  <ellipse cx="349.312" cy="384.886" rx="1.68765" ry="1.68765"  style="fill:rgb(0,0,0)" />
  <ellipse cx="391.333" cy="338.152" rx="1.68765" ry="1.68765"  style="fill:rgb(0,0,0)" />
  <ellipse cx="395.478" cy="275.384" rx="1.68765" ry="1.68765"  style="fill:rgb(0,0,0)" />
  <ellipse cx="386.956" cy="253.313" rx="1.68765" ry="1.68765"  style="fill:rgb(0,0,0)" />
  <ellipse cx="235.849" cy="457.468" rx="1.68765" ry="1.68765"  style="fill:rgb(0,0,0)" />
  <ellipse cx="247.932" cy="429.296" rx="1.68765" ry="1.68765"  style="fill:rgb(0,0,0)" />
  <ellipse cx="431.116" cy="354.222" rx="1.68765" ry="1.68765"  style="fill:rgb(0,0,0)" />
  <ellipse cx="459.44" cy="365.279" rx="1.68765" ry="1.68765"  style="fill:rgb(0,0,0)" />
</svg>
